<svg width="40" height="40" viewBox="0 0 40 40" fill="none" xmlns="http://www.w3.org/2000/svg">
<path fill-rule="evenodd" clip-rule="evenodd" d="M4.53433e-07 5.06334C4.53433e-07 4.25089 0.322744 3.47172 0.89723 2.89723C1.47172 2.32275 2.25089 2 3.06333 2H33.6C34.0026 1.99935 34.4014 2.07811 34.7736 2.23178C35.1457 2.38545 35.4839 2.61102 35.7687 2.89556C36.0536 3.18011 36.2795 3.51804 36.4336 3.89002C36.5877 4.262 36.6669 4.66071 36.6667 5.06334V35.6C36.6671 36.0027 36.5881 36.4015 36.4343 36.7737C36.2804 37.1459 36.0547 37.484 35.77 37.7689C35.4854 38.0537 35.1473 38.2796 34.7752 38.4336C34.4032 38.5877 34.0044 38.6669 33.6017 38.6667H3.06333C2.66091 38.6667 2.26243 38.5874 1.89066 38.4333C1.51889 38.2793 1.18112 38.0535 0.89664 37.7689C0.612162 37.4842 0.386553 37.1463 0.232704 36.7745C0.0788554 36.4026 -0.000218493 36.0041 4.53433e-07 35.6017V5.06334ZM14.5133 15.98H19.4783V18.4733C20.195 17.04 22.0283 15.75 24.7833 15.75C30.065 15.75 31.3167 18.605 31.3167 23.8433V33.5467H25.9717V25.0367C25.9717 22.0533 25.255 20.37 23.435 20.37C20.91 20.37 19.86 22.185 19.86 25.0367V33.5467H14.5133V15.98ZM5.34667 33.3183H10.6933V15.75H5.34667V33.3167V33.3183ZM11.4583 10.02C11.4684 10.4778 11.387 10.933 11.2187 11.3589C11.0505 11.7847 10.7989 12.1727 10.4787 12.5001C10.1585 12.8274 9.77616 13.0875 9.35409 13.265C8.93202 13.4426 8.47873 13.534 8.02083 13.534C7.56294 13.534 7.10965 13.4426 6.68758 13.265C6.2655 13.0875 5.88315 12.8274 5.56295 12.5001C5.24275 12.1727 4.99116 11.7847 4.82293 11.3589C4.65471 10.933 4.57325 10.4778 4.58333 10.02C4.60312 9.12143 4.97398 8.26632 5.61648 7.63781C6.25898 7.00931 7.12204 6.65737 8.02083 6.65737C8.91963 6.65737 9.78269 7.00931 10.4252 7.63781C11.0677 8.26632 11.4385 9.12143 11.4583 10.02V10.02Z" fill="white"/>
</svg>
